<?xml version="1.0" standalone="no"?>
<!DOCTYPE svg PUBLIC "-//W3C//DTD SVG 20010904//EN"
 "http://www.w3.org/TR/2001/REC-SVG-20010904/DTD/svg10.dtd">
<svg version="1.0" xmlns="http://www.w3.org/2000/svg"
 width="512.000000pt" height="512.000000pt" viewBox="0 0 512.000000 512.000000"
 preserveAspectRatio="xMidYMid meet">
<metadata>
Created by potrace 1.14, written by Peter Selinger 2001-2017
</metadata>
<g transform="translate(0.000000,512.000000) scale(0.100000,-0.100000)"
fill="#000000" stroke="none">
<path d="M2510 4959 c-58 -4 -117 -13 -131 -21 -47 -25 -88 -66 -111 -110
l-23 -43 0 -865 c0 -823 1 -867 19 -902 23 -47 68 -91 115 -115 31 -15 69 -18
269 -21 169 -2 232 -7 233 -15 0 -7 0 -84 -1 -173 -1 -182 5 -200 70 -210 37
-6 44 -2 155 91 22 18 114 94 205 169 l165 135 633 1 c436 0 647 4 678 11 61
16 134 82 157 144 16 44 17 109 15 899 -3 811 -4 853 -22 889 -21 43 -68 91
-112 113 -16 9 -58 18 -94 21 -96 7 -2098 9 -2220 2z"/>
<path d="M1250 3913 c-226 -37 -428 -185 -530 -388 -80 -159 -78 -138 -77
-945 l2 -715 27 -80 c103 -299 354 -490 658 -501 123 -4 204 10 315 57 211 87
374 288 420 515 13 68 15 173 13 779 l-3 700 -34 95 c-64 180 -178 314 -341
403 -101 55 -198 80 -320 82 -58 1 -116 0 -130 -2z"/>
<path d="M344 2455 l-26 -26 5 -287 c4 -276 6 -308 28 -397 14 -55 67 -191 97
-245 126 -230 346 -410 600 -491 l72 -23 0 -173 0 -173 -372 0 c-243 0 -387
-4 -413 -11 -56 -16 -108 -56 -141 -109 -28 -44 -29 -49 -29 -183 0 -136 0
-138 25 -157 24 -18 63 -19 1164 -19 1238 0 1188 -3 1202 54 3 14 4 75 2 137
-5 125 -18 166 -70 217 -68 66 -63 66 -495 69 l-393 3 0 173 0 173 63 18 c34
10 67 21 72 25 6 4 35 17 65 29 187 78 391 277 489 476 89 182 108 287 110
615 2 215 0 264 -13 288 -25 49 -77 57 -120 17 l-26 -24 0 -218 c-1 -283 -5
-342 -30 -438 -84 -327 -353 -575 -693 -640 -100 -19 -281 -12 -381 14 -327
87 -582 361 -640 688 -9 50 -14 166 -15 326 -1 136 -6 258 -11 272 -19 50 -86
60 -126 20z"/>
</g>
</svg>
